<svg width="16" height="16" viewBox="0 0 16 16" fill="none" xmlns="http://www.w3.org/2000/svg">
<path d="M5.00004 10.1667C4.87338 10.1667 4.74671 10.12 4.64671 10.02C4.45338 9.82667 4.45338 9.50667 4.64671 9.31334L6.78004 7.18001C6.88671 7.07334 7.02671 7.02001 7.18004 7.03334C7.32671 7.04667 7.46004 7.12667 7.54671 7.25334L8.27338 8.34667L10.64 5.98001C10.8334 5.78667 11.1534 5.78667 11.3467 5.98001C11.54 6.17334 11.54 6.49334 11.3467 6.68667L8.54671 9.48667C8.44004 9.59334 8.30004 9.64667 8.14671 9.63334C8.00004 9.62001 7.86671 9.54001 7.78004 9.41334L7.05338 8.32001L5.35338 10.02C5.25338 10.12 5.12671 10.1667 5.00004 10.1667Z" fill="#037400"/>
<path d="M11.0001 8.16666C10.7267 8.16666 10.5001 7.94 10.5001 7.66666V6.83333H9.66675C9.39341 6.83333 9.16675 6.60666 9.16675 6.33333C9.16675 6.05999 9.39341 5.83333 9.66675 5.83333H11.0001C11.2734 5.83333 11.5001 6.05999 11.5001 6.33333V7.66666C11.5001 7.94 11.2734 8.16666 11.0001 8.16666Z" fill="#037400"/>
<path d="M9.99992 15.1667H5.99992C2.37992 15.1667 0.833252 13.62 0.833252 10V6C0.833252 2.38 2.37992 0.833328 5.99992 0.833328H9.99992C13.6199 0.833328 15.1666 2.38 15.1666 6V10C15.1666 13.62 13.6199 15.1667 9.99992 15.1667ZM5.99992 1.83333C2.92659 1.83333 1.83325 2.92666 1.83325 6V10C1.83325 13.0733 2.92659 14.1667 5.99992 14.1667H9.99992C13.0733 14.1667 14.1666 13.0733 14.1666 10V6C14.1666 2.92666 13.0733 1.83333 9.99992 1.83333H5.99992Z" fill="#037400"/>
</svg>
