<svg width="17" height="16" viewBox="0 0 17 16" fill="none" xmlns="http://www.w3.org/2000/svg">
<path d="M5.50004 5.83333C5.37338 5.83333 5.24671 5.87999 5.14671 5.97999C4.95338 6.17333 4.95338 6.49333 5.14671 6.68666L7.28004 8.81999C7.38671 8.92666 7.52671 8.97999 7.68004 8.96666C7.82671 8.95333 7.96004 8.87333 8.04671 8.74666L8.77338 7.65333L11.14 10.02C11.3334 10.2133 11.6534 10.2133 11.8467 10.02C12.04 9.82666 12.04 9.50666 11.8467 9.31333L9.04671 6.51333C8.94004 6.40666 8.80004 6.35333 8.64671 6.36666C8.50004 6.37999 8.36671 6.45999 8.28004 6.58666L7.55338 7.67999L5.85338 5.97999C5.75338 5.87999 5.62671 5.83333 5.50004 5.83333Z" fill="#740000"/>
<path d="M11.5 7.83334C11.2266 7.83334 11 8.06001 11 8.33334L11 9.16667L10.1666 9.16667C9.89329 9.16667 9.66663 9.39334 9.66663 9.66667C9.66663 9.94001 9.89329 10.1667 10.1666 10.1667L11.5 10.1667C11.7733 10.1667 12 9.94001 12 9.66667L12 8.33334C12 8.06001 11.7733 7.83334 11.5 7.83334Z" fill="#740000"/>
<path d="M10.5 0.833339L6.50004 0.833338C2.88004 0.833338 1.33338 2.38 1.33337 6L1.33337 10C1.33337 13.62 2.88004 15.1667 6.50004 15.1667L10.5 15.1667C14.12 15.1667 15.6667 13.62 15.6667 10L15.6667 6.00001C15.6667 2.38001 14.12 0.833339 10.5 0.833339ZM6.50004 14.1667C3.42671 14.1667 2.33337 13.0733 2.33337 10L2.33337 6C2.33338 2.92667 3.42671 1.83334 6.50004 1.83334L10.5 1.83334C13.5734 1.83334 14.6667 2.92667 14.6667 6.00001L14.6667 10C14.6667 13.0733 13.5734 14.1667 10.5 14.1667L6.50004 14.1667Z" fill="#740000"/>
</svg>
